<?xml version="1.0" encoding="UTF-8" standalone="no"?><!DOCTYPE svg PUBLIC "-//W3C//DTD SVG 1.1//EN" "http://www.w3.org/Graphics/SVG/1.1/DTD/svg11.dtd"><svg width="100%" height="100%" viewBox="0 0 6292 1844" version="1.1" xmlns="http://www.w3.org/2000/svg" xmlns:xlink="http://www.w3.org/1999/xlink" xml:space="preserve" xmlns:serif="http://www.serif.com/" style="fill-rule:evenodd;clip-rule:evenodd;stroke-linejoin:round;stroke-miterlimit:2;"><path d="M2977.083,1.994c-52.917,9.583 -279.167,49.167 -437.5,76.667c-100.833,17.5 -198.333,34.167 -216.667,37.5c-132.917,22.917 -472.083,82.083 -597.917,104.167c-83.75,14.583 -180,31.667 -214.583,37.5c-66.25,11.25 -273.333,47.5 -583.333,102.083c-154.39,27.1 -442.977,77.693 -442.977,77.693l-69.692,211.99c0,0 782.65,-135.516 929.336,-160.932c121.667,-20.833 227.5,-39.167 312.5,-53.75c25.417,-4.167 177.083,-30.417 337.5,-58.333c160.417,-27.917 448.333,-77.5 639.583,-110.833c191.25,-33.333 356.25,-62.083 366.667,-63.75c14.583,-2.083 97.5,9.583 375,54.167c195.833,31.667 409.583,65.833 475,76.25c65.417,10.417 194.583,31.25 287.5,46.25c92.917,15 260.833,42.083 372.917,60.417c287.917,46.25 505.833,81.667 772.917,125c260.558,42.253 593.579,96.165 593.579,96.165l-66.362,-202.803c0,0 -180.751,-29.533 -214.718,-35.028c-113.333,-18.75 -290.417,-47.5 -393.75,-64.583c-287.917,-47.083 -869.583,-141.667 -1154.167,-187.917c-278.333,-45 -645,-104.167 -822.917,-133.333c-62.917,-10 -137.917,-22.5 -166.667,-27.083c-28.75,-4.583 -55,-8.75 -58.333,-9.167c-3.333,-0.833 -13.75,0 -22.917,1.667Z" style="fill:#6f8a24;fill-rule:nonzero;"/><path d="M2899.583,424.91c-115,14.583 -243.75,69.167 -336.25,142.5c-138.333,109.583 -224.583,252.5 -260,431.667c-12.083,62.083 -12.917,175.833 -1.667,237.917c41.25,227.083 178.333,412.5 379.167,513.333c148.75,75 320,93.75 481.667,53.333c124.583,-31.25 241.25,-97.5 329.583,-188.333c105.833,-107.5 177.5,-252.917 195,-392.917c12.083,-98.75 9.167,-168.333 -10.833,-258.333c-13.333,-60 -25.417,-93.75 -55,-154.167c-41.667,-85 -94.583,-155 -158.75,-211.667c-156.667,-138.333 -357.083,-200 -562.917,-173.333Zm43.333,214.583c17.5,4.583 48.75,30.417 48.75,39.583c0,9.583 5.833,6.667 13.333,-6.25c9.583,-17.083 35.417,-33.333 58.75,-36.25c25,-3.75 58.75,12.083 73.333,33.75c13.75,20.417 16.667,54.167 6.667,80c-8.75,22.5 -53.75,71.25 -110.417,120l-36.667,31.25l-14.167,-11.25c-35.417,-29.167 -90.417,-80 -107.083,-99.167c-23.333,-26.667 -33.75,-49.167 -33.75,-73.75c0,-35 15.833,-59.583 47.917,-74.583c19.167,-8.75 31.25,-9.583 53.333,-3.333Zm137.5,327.083c44.167,17.5 81.25,32.917 83.333,34.583c1.667,1.667 -9.583,8.333 -25,14.167l-28.333,11.25l-86.667,-34.167l-87.083,-34.583l24.583,-11.25c13.333,-5.833 27.5,-11.25 31.667,-11.25c4.167,-0.417 43.333,13.75 87.5,31.25Zm-105.417,41.667c42.5,17.5 78.75,33.333 80.417,35c1.667,1.667 -10.833,8.75 -27.917,15.833l-31.25,13.333l-85.417,-34.583c-47.083,-18.75 -84.167,-35.417 -82.5,-37.083c5.417,-5 52.917,-23.333 61.25,-23.75c5,-0.417 43.333,13.75 85.417,31.25Zm-395.417,5.833c11.667,6.25 17.917,20.833 39.583,91.667l19.167,63.75l-8.333,15c-21.25,38.75 -15.417,53.333 50.417,123.333c40.417,42.917 60.833,57.917 68.333,50.417c3.333,-3.333 -24.583,-39.167 -67.5,-87.5c-29.167,-32.917 -35.417,-42.5 -35.417,-53.75c0,-16.667 6.25,-23.75 21.25,-23.75c20.833,0 32.083,7.5 77.5,50.833c46.25,43.75 50,46.667 106.667,71.667c42.083,19.167 77.5,52.083 95.417,89.583c13.75,29.167 13.75,27.917 17.083,134.583l1.667,45l-169.583,0l0,-24.167c0,-50 -15,-71.25 -89.583,-125.833c-62.083,-45.417 -98.333,-82.917 -109.583,-113.333c-10,-27.083 -50.833,-232.083 -53.75,-270.417c-2.083,-25.417 -1.667,-27.917 7.5,-34.583c11.25,-7.917 17.917,-8.333 29.167,-2.5Zm861.25,2.5c12.5,8.75 12.083,36.667 -1.25,100.417c-5.417,27.083 -15.833,80 -22.917,117.917c-20.417,107.5 -33.333,127.917 -129.583,200.833c-80,60.417 -91.25,75.833 -91.25,125l0,24.167l-167.5,0l1.667,-76.25c1.25,-72.5 1.667,-77.083 12.5,-100c22.083,-46.667 63.75,-81.25 130.417,-107.5c19.583,-7.5 33.75,-17.917 64.583,-47.917c47.917,-46.25 67.5,-60 85.417,-60c16.25,0 24.167,8.333 24.167,25c0,9.167 -6.667,20 -27.083,42.5c-50,56.667 -80,97.083 -72.917,98.333c12.917,2.5 32.083,-12.083 70,-55.417c60,-67.5 67.5,-87.5 45,-119.167l-8.75,-12.917l15.417,-52.5c22.083,-74.583 30.417,-95.833 40.833,-102.917c11.25,-7.917 19.583,-7.917 31.25,0.417Zm-72.917,0c5.417,1.667 5,5 -1.25,21.667c-4.167,10.833 -13.75,42.083 -21.25,69.583c-7.5,27.5 -15.417,52.083 -17.917,54.583c-2.5,2.5 -11.25,5.833 -19.583,7.083c-12.917,1.667 -15,1.25 -13.75,-4.583c13.333,-65.833 28.75,-123.333 35.833,-132.083c11.667,-14.583 26.25,-20.833 37.917,-16.25Zm-708.333,14.167c5.833,6.667 11.667,15.833 12.917,19.583c3.75,12.917 27.083,119.583 26.25,120.833c-0.417,0.417 -8.75,-0.417 -18.75,-1.667c-16.25,-2.083 -17.917,-3.333 -21.667,-19.583c-10,-38.75 -30,-105.417 -35.417,-118.333l-6.25,-13.333l16.25,0c12.917,0 18.333,2.5 26.667,12.5Zm244.583,30.417l77.083,31.25l1.25,97.917l0.833,97.917l-87.5,-36.25l-87.083,-35.833l-0.417,-96.667l0,-97.083l9.583,4.167c5,2.083 43.75,17.5 86.25,34.583Zm279.167,58.75l0,97.083l-27.917,10.833c-15.833,5.833 -55,21.667 -87.917,35.417l-59.167,25l0.833,-97.917l1.25,-97.917l24.167,-9.583c43.75,-17.917 40.417,-18.75 40.417,12.5c0,20.833 1.25,27.5 5.417,25.833c2.5,-0.833 12.083,-4.167 20.833,-7.5c12.5,-4.583 15.417,-7.5 15.417,-16.667c0,-5.833 1.25,-19.583 2.5,-30l2.917,-19.167l29.583,-12.083c16.25,-7.083 30,-12.917 30.833,-12.917c0.417,-0.417 0.833,43.333 0.833,97.083Zm-462.083,-47.5c13.75,7.5 23.75,34.583 32.5,88.333c4.583,28.75 9.583,55.417 11.25,60c1.25,4.167 -6.667,-1.667 -17.917,-12.917c-19.583,-19.583 -20.833,-22.917 -27.917,-58.333c-3.75,-20.833 -9.583,-47.5 -12.917,-59.583c-5.833,-23.333 -2.917,-27.083 15,-17.5Zm564.167,17.5c-3.333,12.083 -8.75,38.75 -12.917,59.583c-6.25,33.75 -8.75,39.167 -23.75,55c-9.583,10 -18.333,17.917 -19.583,17.917c-3.333,0 14.583,-99.583 21.25,-119.583c5.417,-16.667 22.083,-34.583 32.5,-34.583c7.5,0 7.5,1.25 2.5,21.667Z" style="fill:#6f8a24;fill-rule:nonzero;"/><path d="M1298.333,548.66c9.583,-7.083 14.583,-6.667 25.833,1.25c9.167,6.25 9.167,7.083 9.167,129.167l0,122.5l34.583,-1.667c18.75,-0.833 74.167,-2.083 122.917,-2.083l88.333,-0.417l0,-118.75c0,-113.333 0.417,-119.167 8.333,-127.083c10,-10 16.25,-10.417 27.5,-2.5c7.5,5.833 7.917,13.333 8.333,247.917c0,132.917 1.25,242.917 2.5,244.167c1.25,1.25 15.417,-17.917 31.667,-42.5c16.25,-25 77.5,-116.25 136.25,-203.333c58.75,-87.083 120.417,-178.333 136.25,-203.333l29.167,-44.583l169.167,0c151.25,0 169.583,0.833 176.667,7.083c4.167,3.75 7.5,10 7.5,13.75c0,3.75 -14.167,27.5 -31.25,52.5c-87.083,125.417 -108.75,157.083 -135.833,195.417c-15.833,22.917 -55.833,80.833 -88.333,128.333c-32.5,47.5 -72.083,104.583 -87.5,127.083c-15.833,22.083 -30.417,43.333 -32.5,47.083c-2.5,5 1.667,15 16.667,37.5c41.667,63.75 169.167,256.667 256.667,389.167c50,75.417 99.167,150 109.167,165.833l17.917,27.917l0,42.917c0,45.833 -5.417,61.25 -21.25,61.25c-17.083,0 -24.583,-14.167 -24.583,-48.333c0,-30.833 -0.417,-31.667 -9.167,-29.167c-5.417,1.25 -67.917,2.5 -139.167,2.5l-129.583,0l2.083,22.917c2.5,29.583 -1.25,42.917 -13.75,48.75c-7.917,3.75 -12.083,2.917 -20.833,-2.5c-10,-6.667 -10.417,-8.75 -10.417,-45l0,-37.917l-21.667,-33.75c-11.667,-18.75 -42.5,-66.667 -67.917,-106.667c-25.833,-40 -62.083,-97.5 -81.25,-127.083c-104.167,-163.333 -145,-227.083 -158.75,-247.083l-15.417,-21.667l-2.5,71.667c-1.25,39.583 -2.083,175 -1.25,301.25c0.833,125.833 0,233.333 -1.667,238.333c-6.25,17.083 -34.167,17.5 -39.583,0c-1.667,-5 -2.5,-21.25 -2.083,-36.25l0.833,-27.083l-246.25,0l0,32.083c0,23.333 -1.667,33.75 -6.667,38.333c-9.167,9.583 -20.833,8.333 -29.583,-3.333c-7.5,-9.167 -7.917,-31.25 -7.083,-644.583c0.833,-604.583 1.25,-634.583 8.333,-640Zm280.833,1173.75l0,-262.083l-245.833,-2.5l0,264.583l245.833,0Zm519.167,-263.333c-2.5,-1.667 -10,-2.917 -17.083,-2.5c-6.667,0.833 -64.583,2.083 -128.333,3.333l-115.833,2.083l52.917,83.333c28.75,45.833 66.25,104.583 83.333,130l31.25,47.083l270,0l-49.167,-74.167c-26.667,-40.417 -65.417,-99.167 -85.833,-130c-20,-30.833 -38.75,-57.5 -41.25,-59.167Zm-519.167,-353.333l0,-262.5l-245.833,0l0,262.5l245.833,0Zm-224.167,-192.917l-0.833,-23.75l83.333,0l0,61.25l37.5,0l0,-61.25l39.167,0c37.083,0 39.167,0.417 41.667,9.167c1.25,5.417 2.5,51.25 2.5,102.083l0,92.917l-100,0c-77.083,0 -100,-1.25 -100.417,-5.417c-1.667,-16.667 -2.5,-57.083 -2.5,-100.833c0.417,-27.5 0,-60.833 -0.417,-74.167Zm887.083,-312.5l8.75,-11.25l-266.667,0l-68.333,102.917c-37.917,57.083 -67.5,103.75 -66.25,104.167c1.25,0.417 59.167,1.25 128.333,2.5l126.25,2.083l20,-30c31.667,-47.083 108.333,-157.5 117.917,-170.417Zm-292.917,629.167l-52.083,-78.333l-129.583,-0.833c-71.667,-0.417 -130,-0.417 -130,0c0,0.417 9.583,15.417 21.667,33.333c11.667,17.917 40.417,62.5 63.75,99.167c22.917,36.667 51.25,81.25 62.5,99.167l20.833,32.083l264.167,0l-34.583,-53.333c-19.167,-29.167 -58.333,-88.333 -86.667,-131.25Zm121.667,-383.75c0,-1.25 -57.5,-2.5 -127.917,-2.5l-128.333,0l-87.083,130.417l-87.083,130l124.167,1.25c114.583,0.833 125.417,0.417 132.083,-6.25c3.75,-4.167 24.583,-33.333 45.833,-64.583c21.25,-31.25 58.75,-86.25 83.75,-121.667c24.583,-35 44.583,-65.417 44.583,-66.667Zm-491.667,568.333l0,-264.583l-121.25,0c-66.667,0 -122.083,0.833 -122.917,1.667c-0.833,0.833 -1.667,60.417 -1.667,132.5l0,130.417l245.833,0Z" style="fill:#6f8a24;"/><path d="M1962.083,659.91c0,9.167 -0.417,40.417 -0.833,69.583l0,53.333l69.167,1.25l69.583,0.833l0,-141.667l-54.167,0l-0.417,19.583c-0.417,11.25 -0.417,21.25 -0.417,22.5c0.417,1.667 -5.417,2.5 -12.917,2.083c-12.917,-0.417 -13.333,-1.25 -15.417,-21.25l-2.083,-20.833l-25.833,-1.25l-26.25,-1.25l-0.417,17.083Z" style="fill:#6f8a24;fill-rule:nonzero;"/><path d="M1786.25,908.244c-1.667,1.667 -2.917,22.5 -2.917,46.25l0,42.917l86.667,0l1.667,-22.917c0.417,-12.5 0.417,-33.333 0,-45.833c-1.667,-22.083 -2.083,-22.917 -13.333,-22.917c-20,0 -25,3.75 -25,19.167c0,18.333 -11.667,15 -13.333,-3.75c-1.25,-12.083 -2.917,-13.333 -15.833,-14.583c-8.333,-0.833 -16.25,0 -17.917,1.667Z" style="fill:#6f8a24;fill-rule:nonzero;"/><path d="M1712.5,1005.744l0,87.5l87.5,0l0,-87.5l-18.75,0c-17.917,0 -18.75,0.417 -18.75,12.5c0,8.333 -2.083,12.5 -6.25,12.5c-4.167,0 -6.25,-4.167 -6.25,-12.5c0,-12.083 -0.833,-12.5 -18.75,-12.5l-18.75,0Z" style="fill:#6f8a24;fill-rule:nonzero;"/><path d="M1809.167,1049.494l1.25,43.75l89.583,0l0,-87.5l-18.75,0c-10.417,0 -18.333,1.25 -18.333,2.917c2.083,13.75 -1.25,22.083 -8.75,22.083c-6.667,0 -8.333,-2.917 -8.333,-12.5c0,-12.083 -0.833,-12.5 -18.75,-12.5l-18.75,0l0.833,43.75Z" style="fill:#6f8a24;fill-rule:nonzero;"/><path d="M1356.667,1200.327c-2.917,2.917 -3.333,186.25 0,194.583c1.25,3.75 29.167,5.417 101.667,6.25l100,1.25l-0.833,-101.667l-1.25,-101.25l-79.167,0l1.25,31.25l1.667,31.25l-21.25,0c-20.833,0 -21.25,0 -21.25,-12.917c0,-7.083 -1.25,-21.667 -2.5,-32.5l-2.917,-19.167l-36.25,0c-20,0 -37.5,1.25 -39.167,2.917Z" style="fill:#6f8a24;fill-rule:nonzero;"/><path d="M1812.5,1255.744l0,145l70.833,0.833l70.833,0.417l0,-146.25l-58.333,0l0,21.667c0,21.25 -0.417,22.083 -11.667,22.083c-11.25,0 -12.083,-1.25 -12.917,-18.333c-0.417,-10.417 -1.667,-20 -2.917,-22.083c-1.25,-1.667 -14.167,-3.333 -29.167,-3.333l-26.667,0Z" style="fill:#6f8a24;fill-rule:nonzero;"/><path d="M1357.083,1508.66c-4.167,7.083 -0.833,192.5 3.75,197.083c2.917,2.917 36.25,3.75 100,3.333l95.417,-1.25l0,-200l-75.833,-2.5l-2.5,20c-1.25,10.833 -1.667,25.833 -1.25,32.5c0.833,12.083 0.417,12.5 -19.167,12.5l-20,0l0,-64.583l-39.167,0c-21.667,0 -40.417,1.25 -41.25,2.917Z" style="fill:#6f8a24;fill-rule:nonzero;"/><path d="M2120,1566.994l-20,1.667l0,39.583l-29.167,0l0,-40l-57.917,0l0.833,69.583l0.833,70l141.667,0l1.25,-68.333c1.25,-68.333 -0.417,-76.667 -13.75,-74.583c-2.083,0.417 -12.917,1.25 -23.75,2.083Z" style="fill:#6f8a24;fill-rule:nonzero;"/><path d="M3969.167,546.577c-114.167,0.417 -167.917,2.5 -172.083,5.417c-4.583,3.75 -5.417,55 -5.417,280c0,151.667 1.667,273.75 3.333,271.25c2.083,-2.083 12.5,-32.083 23.333,-66.25c26.25,-81.25 42.917,-116.25 67.917,-140.833c18.75,-18.333 62.5,-44.583 74.583,-44.583c3.333,0 0.417,-9.167 -7.917,-25.833c-11.667,-22.5 -13.333,-29.583 -13.333,-59.167c0.417,-56.667 25.833,-97.083 76.667,-122.5c19.583,-9.583 28.75,-11.25 56.667,-11.25c29.583,0 37.083,1.667 61.25,13.75c39.583,19.167 65.417,55 72.5,99.583l2.5,17.5l29.583,5c37.083,5.833 59.583,15.417 80,33.333c16.667,14.583 35.417,49.167 35.417,65c0,9.167 -1.667,9.583 -32.5,9.583c-19.583,0 -34.583,2.083 -37.5,5c-3.333,3.333 -5,25 -5,70.833l0,65.833l12.083,0c11.667,0 12.5,-0.833 15,-22.917c1.667,-12.5 1.667,-34.583 0.417,-49.167c-4.583,-39.583 -3.75,-40.417 37.5,-40.417l35,0l0,45l22.917,0.417l22.917,0l0,-22.083c0,-26.667 2.917,-28.333 46.25,-24.583l28.75,2.5l-0.833,98.333l-1.25,98.333l-35.417,1.25c-35,1.25 -35.417,1.25 -52.083,17.917c-19.583,18.75 -26.667,20.417 -155,39.167c-88.75,12.5 -94.583,11.667 -137.083,-17.083c-34.167,-23.333 -39.167,-25.417 -39.167,-16.25c0,5.833 -27.917,102.5 -41.667,145c-3.333,10.417 -2.083,12.5 15.833,25.833l19.583,14.583l102.5,0c74.167,0 112.917,-1.667 139.583,-6.25c107.083,-18.75 196.25,-73.75 249.167,-153.333c26.25,-40 32.5,-54.167 47.083,-105c15,-54.583 18.333,-157.5 6.25,-215.417c-27.083,-130 -120.833,-228.333 -255.833,-267.5c-71.25,-20.417 -102.083,-22.083 -392.5,-20Z" style="fill:#6f8a24;fill-rule:nonzero;"/><path d="M4838.333,574.077c-25,8.333 -48.333,25 -61.25,44.583c-15.417,23.75 -19.167,35.833 -19.167,62.5c-0.417,93.75 111.667,145.417 182.917,84.583c47.917,-40.833 52.083,-112.5 9.583,-160.833c-24.167,-27.5 -77.083,-42.083 -112.083,-30.833Z" style="fill:#6f8a24;fill-rule:nonzero;"/><path d="M1360,585.744c-3.333,5 -5,178.75 -2.5,191.667c1.667,7.083 10,7.5 101.25,7.5l99.583,0l0,-97.5c0,-78.333 -1.25,-98.333 -5.833,-102.083c-3.75,-3.333 -17.917,-4.583 -38.75,-3.75l-32.5,1.25l-2.5,63.333l-20,-0.417l-20.417,-0.417l-2.917,-32.5l-2.5,-32.083l-35,0c-22.083,0 -35.833,1.667 -37.917,5Z" style="fill:#6f8a24;fill-rule:nonzero;"/><path d="M739.583,649.91c-187.917,32.083 -350,60.417 -350,61.25c-2.083,4.167 -49.167,138.75 -70.833,202.917c-15.417,44.583 -35,101.667 -43.75,127.083c-8.75,25 -34.167,98.333 -56.25,162.5c-22.083,64.167 -55.833,161.667 -75,216.667c-19.167,55 -46.25,133.75 -60.417,175c-14.167,41.25 -38.75,112.083 -54.583,157.5c-15.833,45.417 -28.75,83.333 -28.75,84.167c0,1.25 75.833,2.083 167.917,2.083l168.333,0l40,-132.083c22.083,-72.917 42.917,-143.333 46.667,-156.25l6.667,-24.167l194.167,-0.833c106.667,-0.833 194.167,0 195,1.25c0.833,1.25 12.917,38.75 27.083,83.333c13.75,44.583 35.833,114.167 48.75,154.583l23.333,74.167l168.333,0c92.5,0 167.917,-1.667 167.917,-3.333c0,-1.667 -8.75,-27.5 -19.167,-57.5c-10.417,-29.583 -50,-142.917 -87.5,-251.667c-37.917,-108.75 -80.417,-230 -94.167,-268.75c-13.75,-39.167 -33.333,-94.167 -42.917,-122.917c-10,-28.75 -37.083,-106.667 -60.417,-172.917c-84.167,-240.417 -105,-300.417 -109.583,-313.75c-2.5,-7.917 -7.083,-13.333 -10.833,-12.917c-3.75,0 -44.167,6.667 -90,14.583Zm-75.417,349.583c21.667,73.333 48.75,162.5 60,197.917c11.25,35.417 21.667,68.75 23.333,73.75l2.917,9.583l-253.333,0l14.167,-47.083c68.75,-225.833 99.167,-329.167 107.5,-363.333c1.667,-7.083 3.75,-10.833 4.583,-8.333c0.417,2.083 18.75,64.167 40.833,137.5Z" style="fill:#6f8a24;fill-rule:nonzero;"/><path d="M5443.75,661.577c-5.417,12.917 -52.5,149.167 -135.417,390c-24.583,72.083 -52.917,153.75 -62.5,181.25c-9.583,27.5 -29.167,84.583 -43.75,127.083c-14.167,42.5 -44.167,129.583 -66.667,193.75c-22.083,64.167 -52.083,151.25 -66.667,193.75c-14.583,42.5 -27.5,80.417 -29.167,84.167c-2.917,7.083 6.667,7.5 165,7.5l168.333,0l45,-149.167c24.583,-81.667 46.25,-152.5 48.333,-157.083c3.333,-8.333 6.667,-8.333 197.5,-7.083l194.167,0.833l6.667,24.167c5.417,20 21.25,70.417 84.167,268.333l6.25,20l168.333,0c92.5,0 168.333,-1.25 168.333,-2.5c0,-1.25 -10.417,-32.5 -23.333,-69.583c-47.083,-136.667 -93.333,-269.583 -119.583,-344.583c-45,-127.5 -115,-328.333 -132.083,-377.083c-38.333,-109.583 -112.917,-320.417 -113.75,-321.667c-0.833,-0.417 -94.167,-16.25 -207.5,-34.583c-113.333,-18.333 -215,-35 -226.25,-37.083c-20,-3.333 -20,-3.333 -25.417,9.583Zm287.083,435.833c28.75,92.917 52.917,172.083 54.583,175.833c2.917,7.083 -4.583,7.5 -124.583,7.5c-100,0 -126.667,-1.25 -125.417,-5.417c6.667,-18.75 60,-195 79.167,-261.667c12.917,-44.583 28.333,-96.667 34.167,-116.25l10.833,-35.417l10,33.333c5.417,18.333 32.917,109.167 61.25,202.083Z" style="fill:#6f8a24;fill-rule:nonzero;"/><path d="M4053.333,660.327c-67.917,10.417 -107.5,89.583 -75.833,152.917c19.583,39.167 67.5,64.167 110.833,57.5c28.333,-4.167 61.25,-25.833 75.833,-49.583c22.917,-37.5 19.167,-90.833 -8.75,-123.75c-25,-29.167 -62.917,-42.917 -102.083,-37.083Z" style="fill:#6f8a24;fill-rule:nonzero;"/><path d="M4831.25,815.744c-39.583,12.5 -70,39.583 -87.5,78.333l-10.833,23.333l1.25,191.25l1.25,191.667l14.167,26.667l13.75,26.667l14.167,166.667c7.5,91.667 15.417,185 17.083,207.5l3.75,40.833l-23.75,12.917c-27.5,14.167 -38.333,25 -44.583,43.333l-4.167,13.333l33.75,1.667c69.167,3.75 177.083,1.667 182.5,-3.75c3.333,-3.333 6.667,-26.667 8.333,-62.5c24.167,-424.167 24.167,-422.5 35,-438.75c21.667,-32.083 22.917,-46.25 22.917,-231.25c0,-145 -0.833,-175 -6.667,-193.75c-21.667,-73.75 -99.583,-116.667 -170.417,-94.167Zm120.833,201.667c6.25,62.917 10.417,121.25 8.75,130c-4.583,27.917 -50.833,186.667 -57.917,197.083c-7.917,12.5 -31.25,23.75 -48.75,23.75c-27.917,0 -54.167,-25.417 -54.167,-52.083c0,-7.083 9.167,-52.917 20.833,-102.5c11.25,-49.167 19.583,-93.333 18.333,-97.917c-3.333,-14.583 -22.5,-148.75 -22.5,-158.75c0,-7.917 2.083,-10 9.167,-8.75c10.417,1.25 13.333,15.833 26.667,122.5c8.333,67.5 7.917,71.667 -19.583,182.083c-14.583,58.75 -15,69.167 -3.333,83.75c6.667,8.333 12.083,10.833 24.167,10.833c30.833,0 38.333,-15.833 77.917,-164.583c12.083,-46.667 12.5,-40 -2.5,-193.75c-5.833,-62.917 -6.667,-86.667 -3.333,-90.833c10.833,-12.5 15,7.083 26.25,119.167Z" style="fill:#6f8a24;fill-rule:nonzero;"/><path d="M3951.25,883.66c-29.167,10 -57.5,39.167 -76.25,77.917c-17.5,36.25 -49.583,136.25 -73.333,227.083c-19.167,73.75 -18.333,103.333 4.167,151.667c8.333,17.5 29.583,69.167 47.083,114.583c17.083,45 32.917,85.417 35,89.167c5.417,10 1.667,16.667 -70.833,117.917c-35,48.75 -65,94.583 -67.083,103.333c-7.917,28.333 7.917,60 36.25,72.083c18.75,7.917 33.333,7.083 53.333,-2.5c14.583,-7.083 28.75,-24.583 96.667,-119.583c43.333,-61.667 82.5,-117.5 86.25,-125c7.5,-15.417 8.75,-41.25 2.083,-58.333c-17.5,-45 -28.333,-76.25 -25.417,-74.583c42.5,26.25 78.333,49.167 82.5,52.917c4.583,3.75 5.833,31.25 5.833,144.167c0,154.167 0.833,158.75 26.25,177.083c9.583,7.083 19.167,9.167 36.667,9.583c25.833,0 39.167,-7.083 55.417,-28.75c8.75,-11.25 8.75,-15.417 7.5,-180.833c-1.25,-129.167 -2.917,-172.5 -7.083,-182.5c-6.667,-16.667 -26.25,-31.667 -124.583,-97.5c-75.833,-50.833 -77.5,-52.5 -75.417,-64.583c1.25,-7.083 14.583,-52.083 29.167,-100.417c15,-48.75 27.083,-90.417 27.083,-92.5c0,-2.5 -23.75,-21.25 -52.917,-41.25c-38.333,-27.083 -54.167,-40 -58.333,-50c-16.25,-39.167 7.5,-76.25 49.583,-76.25c14.583,0 24.167,4.167 50.417,21.25c17.917,11.25 34.167,20.417 36.25,19.583c2.083,-0.833 0,-11.667 -4.167,-24.167c-18.333,-53.75 -75.833,-79.583 -132.083,-59.583Z" style="fill:#6f8a24;fill-rule:nonzero;"/><path d="M3979.583,944.91c-11.667,6.667 -20.833,21.667 -21.25,35c0,15.833 13.333,30.417 52.083,57.083c20,13.75 49.583,34.583 65.833,46.25c76.667,53.75 87.083,60 101.25,60c7.5,0 54.583,-5.833 104.583,-12.917c95.833,-13.333 106.25,-16.667 117.083,-38.75c7.083,-14.583 3.333,-32.083 -10,-44.583c-13.333,-12.5 -30.833,-12.5 -127.917,1.667l-70.417,10l-33.75,-23.75c-143.75,-99.583 -152.5,-103.75 -177.5,-90Z" style="fill:#6f8a24;fill-rule:nonzero;"/></svg>